<svg width="163" height="49" viewBox="0 0 163 49" fill="none" xmlns="http://www.w3.org/2000/svg">
<path d="M24.1265 18.2573C23.6279 18.2573 23.1283 18.0665 22.7479 17.686C21.9858 16.9251 21.9858 15.6898 22.7479 14.9288L27.7901 9.88653C28.5511 9.12555 29.7864 9.12555 30.5474 9.88653C31.3094 10.6475 31.3094 11.8828 30.5474 12.6438L25.5051 17.686C25.1246 18.0665 24.625 18.2573 24.1265 18.2573Z" fill="#38FF9C"/>
<path d="M20.4712 40.0399C9.43171 40.0399 0.450684 31.0589 0.450684 20.0205C0.450684 8.98208 9.43171 0 20.4712 0C31.5106 0 40.4917 8.98103 40.4917 20.0205C40.4917 31.06 31.5106 40.041 20.4712 40.041V40.0399ZM20.4712 3.89975C11.5829 3.89975 4.35044 11.1312 4.35044 20.0205C4.35044 28.9098 11.5818 36.1412 20.4712 36.1412C29.3605 36.1412 36.5919 28.9098 36.5919 20.0205C36.5919 11.1312 29.3595 3.89975 20.4712 3.89975Z" fill="#38FF9C"/>
<path d="M11.7726 30.5719C11.2741 30.5719 10.7745 30.3811 10.394 30.0006C9.633 29.2397 9.63194 28.0044 10.394 27.2434L15.4363 22.2011C16.1972 21.4402 17.4325 21.4391 18.1935 22.2011C18.9545 22.9632 18.9555 24.1974 18.1935 24.9584L13.1512 30.0006C12.7707 30.3811 12.2711 30.5719 11.7726 30.5719Z" fill="#38FF9C"/>
<path d="M20.0348 13.0014C16.5493 13.2512 13.7309 16.0548 13.4948 19.5424C13.4822 19.7311 13.4 19.9092 13.265 20.0431L10.433 22.8794C10.2728 23.0406 9.99558 22.9679 9.93761 22.7476C9.70784 21.8696 9.56555 20.9274 9.56555 19.9904C9.56555 13.9616 14.4698 9.05737 20.4986 9.05737C21.4809 9.05737 22.4337 9.18807 23.3401 9.43154C23.5235 9.48108 23.5836 9.71085 23.4497 9.84576L20.5228 12.7748C20.3921 12.9055 20.2193 12.9866 20.0348 13.0003V13.0014Z" fill="#38FF9C"/>
<path d="M27.6489 19.9192L30.5779 16.9923C30.7117 16.8585 30.9426 16.9185 30.9921 17.1019C31.2366 18.0084 31.3663 18.9612 31.3663 19.9435C31.3663 25.9723 26.4621 30.8765 20.4333 30.8765C19.4973 30.8765 18.555 30.7342 17.676 30.5044C17.4557 30.4465 17.3841 30.1703 17.5443 30.0091L20.3806 27.177C20.5144 27.0431 20.6925 26.9609 20.8812 26.9472C24.3699 26.7111 27.1724 23.8928 27.4222 20.4072C27.4359 20.2228 27.5171 20.0499 27.6478 19.9192H27.6489Z" fill="#38FF9C"/>
<path d="M48.503 30.3077V10.5349H61.8264V13.9815H52.6831V18.6928H61.1403V22.1393H52.6831V26.8601H61.8644V30.3067H48.5019L48.503 30.3077Z" fill="white"/>
<path d="M71.6464 15.4782V18.5674H62.716V15.4782H71.6464ZM64.7428 11.9252H68.8554V25.7503C68.8554 26.1298 68.9134 26.4249 69.0294 26.6336C69.1453 26.8433 69.3076 26.9898 69.5174 27.0731C69.726 27.1563 69.9695 27.1985 70.2467 27.1985C70.4396 27.1985 70.6325 27.1806 70.8264 27.1458C71.0193 27.111 71.1679 27.0826 71.2701 27.0636L71.9173 30.1244C71.7107 30.1887 71.4219 30.2646 71.0488 30.351C70.6757 30.4374 70.2214 30.4912 69.687 30.5101C68.6952 30.5491 67.8289 30.4163 67.0848 30.1138C66.3417 29.8113 65.7631 29.3413 65.352 28.7047C64.9399 28.067 64.7375 27.2628 64.7438 26.291V11.9252H64.7428Z" fill="white"/>
<path d="M77.9441 21.7346V30.3077H73.8315V10.5349H77.8282V18.0941H78.0021C78.3362 17.2193 78.8769 16.5321 79.6242 16.0325C80.3704 15.534 81.3074 15.2842 82.4341 15.2842C83.4639 15.2842 84.3629 15.5076 85.1323 15.9556C85.9017 16.4035 86.5004 17.0433 86.9283 17.877C87.3563 18.7107 87.567 19.7067 87.5607 20.865V30.3077H83.4481V21.5986C83.4544 20.6848 83.2246 19.9734 82.7577 19.4653C82.2908 18.9573 81.6394 18.7023 80.8026 18.7023C80.2429 18.7023 79.7486 18.8214 79.3207 19.0596C78.8927 19.2978 78.5576 19.6435 78.3162 20.0977C78.0748 20.552 77.9505 21.0969 77.9441 21.7346Z" fill="white"/>
<path d="M97.2637 30.5973C95.7386 30.5973 94.4263 30.2864 93.3291 29.6656C92.2319 29.0448 91.3866 28.1626 90.7943 27.0201C90.202 25.8776 89.9058 24.5242 89.9058 22.9601C89.9058 21.396 90.202 20.0964 90.7943 18.9434C91.3866 17.7914 92.2214 16.8934 93.2996 16.2494C94.3779 15.6054 95.6437 15.2839 97.0993 15.2839C98.0774 15.2839 98.9901 15.4399 99.8365 15.7519C100.683 16.0639 101.423 16.5329 102.057 17.1569C102.691 17.7808 103.185 18.565 103.539 19.5083C103.893 20.4516 104.07 21.5541 104.07 22.8147V23.9446H91.5479V21.396H100.199C100.199 20.8037 100.07 20.2798 99.8133 19.8224C99.5561 19.366 99.1999 19.0066 98.7466 18.7463C98.2934 18.486 97.7664 18.3553 97.1678 18.3553C96.5691 18.3553 95.9915 18.4986 95.512 18.7853C95.0324 19.072 94.6572 19.4546 94.3873 19.9341C94.1165 20.4137 93.9784 20.946 93.9721 21.532V23.9551C93.9721 24.6887 94.1091 25.3232 94.3821 25.8575C94.6561 26.3919 95.044 26.804 95.5457 27.0928C96.0474 27.3827 96.6429 27.5271 97.3322 27.5271C97.7896 27.5271 98.207 27.4628 98.5875 27.3342C98.9669 27.2056 99.2926 27.0127 99.5624 26.7545C99.8333 26.4973 100.039 26.1822 100.18 25.808L103.984 26.0589C103.791 26.9727 103.397 27.7695 102.801 28.4482C102.206 29.127 101.44 29.6551 100.504 30.0313C99.5677 30.4076 98.4874 30.5963 97.2647 30.5963L97.2637 30.5973Z" fill="white"/>
<path d="M106.512 30.3074V15.4778H110.5V18.0654H110.655C110.924 17.1453 111.379 16.4486 112.016 15.9753C112.653 15.5021 113.388 15.266 114.217 15.266C114.423 15.266 114.645 15.2786 114.883 15.305C115.121 15.3313 115.33 15.3661 115.511 15.4114V19.0614C115.318 19.0034 115.051 18.9518 114.71 18.9065C114.369 18.8611 114.057 18.839 113.774 18.839C113.169 18.839 112.63 18.9697 112.158 19.23C111.684 19.4904 111.311 19.8529 111.037 20.3167C110.763 20.7805 110.627 21.3148 110.627 21.9198V30.3096H106.515L106.512 30.3074Z" fill="white"/>
<path d="M121.506 10.5349V30.3077H117.394V10.5349H121.506Z" fill="white"/>
<path d="M124.565 30.3074V15.4778H128.678V30.3074H124.565Z" fill="white"/>
<path d="M135.843 21.7343V30.3075H131.73V15.4779H135.65V18.0939H135.824C136.152 17.2317 136.703 16.5477 137.474 16.0418C138.247 15.5369 139.183 15.2839 140.284 15.2839C141.314 15.2839 142.212 15.5095 142.978 15.9595C143.745 16.4106 144.34 17.0525 144.765 17.8852C145.19 18.7189 145.401 19.7117 145.401 20.8637V30.3064H141.289V21.5973C141.295 20.6898 141.063 19.9805 140.593 19.4683C140.123 18.9571 139.476 18.701 138.653 18.701C138.099 18.701 137.611 18.8201 137.19 19.0583C136.768 19.2965 136.439 19.6422 136.205 20.0964C135.97 20.5507 135.849 21.0956 135.843 21.7333V21.7343Z" fill="white"/>
<path d="M148.363 30.3077V10.5349H152.476V30.3077H148.363ZM152.09 26.0401L152.099 21.1064H152.698L157.448 15.4781H162.169L155.787 22.9319H154.812L152.09 26.0412V26.0401ZM157.632 30.3077L153.268 23.8489L156.011 20.943L162.451 30.3077H157.633H157.632Z" fill="white"/>
<path d="M126.622 13.6196C127.776 13.6196 128.71 12.6848 128.71 11.5317C128.71 10.3785 127.776 9.44373 126.622 9.44373C125.469 9.44373 124.535 10.3785 124.535 11.5317C124.535 12.6848 125.469 13.6196 126.622 13.6196Z" fill="white"/>
<path d="M136.242 44.041H132.976V34.8275H136.269C137.196 34.8275 137.994 35.012 138.663 35.3809C139.332 35.7468 139.846 36.2732 140.206 36.96C140.569 37.6468 140.75 38.4685 140.75 39.4253C140.75 40.385 140.569 41.2098 140.206 41.8996C139.846 42.5894 139.329 43.1188 138.654 43.4877C137.982 43.8566 137.178 44.041 136.242 44.041ZM134.924 42.372H136.162C136.737 42.372 137.222 42.27 137.615 42.0661C138.01 41.8591 138.307 41.5397 138.505 41.1078C138.706 40.6729 138.807 40.1121 138.807 39.4253C138.807 38.7445 138.706 38.1881 138.505 37.7562C138.307 37.3244 138.012 37.0064 137.619 36.8025C137.226 36.5986 136.742 36.4966 136.166 36.4966H134.924V42.372ZM145.026 44.176C144.327 44.176 143.723 44.0275 143.213 43.7306C142.706 43.4307 142.315 43.0138 142.039 42.4799C141.763 41.9431 141.625 41.3208 141.625 40.613C141.625 39.8992 141.763 39.2753 142.039 38.7415C142.315 38.2046 142.706 37.7877 143.213 37.4908C143.723 37.1909 144.327 37.0409 145.026 37.0409C145.725 37.0409 146.328 37.1909 146.835 37.4908C147.344 37.7877 147.737 38.2046 148.013 38.7415C148.289 39.2753 148.427 39.8992 148.427 40.613C148.427 41.3208 148.289 41.9431 148.013 42.4799C147.737 43.0138 147.344 43.4307 146.835 43.7306C146.328 44.0275 145.725 44.176 145.026 44.176ZM145.035 42.6914C145.353 42.6914 145.618 42.6014 145.831 42.4215C146.044 42.2385 146.205 41.9896 146.313 41.6747C146.424 41.3598 146.479 41.0014 146.479 40.5995C146.479 40.1976 146.424 39.8392 146.313 39.5243C146.205 39.2093 146.044 38.9604 145.831 38.7775C145.618 38.5945 145.353 38.503 145.035 38.503C144.714 38.503 144.444 38.5945 144.225 38.7775C144.009 38.9604 143.846 39.2093 143.735 39.5243C143.627 39.8392 143.573 40.1976 143.573 40.5995C143.573 41.0014 143.627 41.3598 143.735 41.6747C143.846 41.9896 144.009 42.2385 144.225 42.4215C144.444 42.6014 144.714 42.6914 145.035 42.6914ZM152.542 44.176C151.834 44.176 151.225 44.026 150.715 43.7261C150.209 43.4232 149.819 43.0033 149.546 42.4664C149.276 41.9296 149.141 41.3118 149.141 40.613C149.141 39.9052 149.277 39.2843 149.55 38.7505C149.826 38.2136 150.218 37.7952 150.724 37.4953C151.231 37.1924 151.834 37.0409 152.533 37.0409C153.136 37.0409 153.664 37.1504 154.117 37.3693C154.569 37.5883 154.928 37.8957 155.192 38.2916C155.456 38.6875 155.601 39.1524 155.628 39.6862H153.82C153.769 39.3413 153.634 39.0639 153.415 38.8539C153.199 38.641 152.915 38.5345 152.564 38.5345C152.268 38.5345 152.008 38.6155 151.786 38.7775C151.567 38.9364 151.396 39.1689 151.273 39.4748C151.15 39.7807 151.089 40.1511 151.089 40.586C151.089 41.0268 151.149 41.4017 151.269 41.7107C151.392 42.0196 151.564 42.255 151.786 42.417C152.008 42.5789 152.268 42.6599 152.564 42.6599C152.783 42.6599 152.98 42.6149 153.154 42.5249C153.331 42.435 153.476 42.3045 153.59 42.1335C153.707 41.9596 153.784 41.7511 153.82 41.5082H155.628C155.598 42.0361 155.454 42.5009 155.196 42.9028C154.941 43.3017 154.589 43.6136 154.139 43.8386C153.689 44.0635 153.157 44.176 152.542 44.176ZM162.351 39.1014L160.597 39.2093C160.567 39.0594 160.502 38.9244 160.403 38.8045C160.304 38.6815 160.174 38.584 160.012 38.512C159.853 38.4371 159.662 38.3996 159.441 38.3996C159.144 38.3996 158.893 38.4625 158.689 38.5885C158.485 38.7115 158.383 38.8764 158.383 39.0834C158.383 39.2483 158.449 39.3878 158.581 39.5018C158.713 39.6157 158.94 39.7072 159.261 39.7762L160.511 40.0281C161.183 40.1661 161.684 40.388 162.014 40.6939C162.344 40.9999 162.509 41.4017 162.509 41.8996C162.509 42.3525 162.375 42.7499 162.108 43.0918C161.844 43.4337 161.481 43.7006 161.02 43.8926C160.561 44.0815 160.031 44.176 159.432 44.176C158.517 44.176 157.788 43.9855 157.245 43.6046C156.705 43.2207 156.389 42.6989 156.296 42.0391L158.181 41.9401C158.238 42.219 158.376 42.432 158.595 42.5789C158.814 42.7229 159.094 42.7949 159.436 42.7949C159.772 42.7949 160.042 42.7304 160.246 42.6014C160.453 42.4694 160.558 42.3 160.561 42.0931C160.558 41.9191 160.484 41.7766 160.34 41.6657C160.196 41.5517 159.974 41.4647 159.674 41.4047L158.478 41.1663C157.803 41.0313 157.301 40.7974 156.971 40.4645C156.644 40.1316 156.48 39.7072 156.48 39.1913C156.48 38.7475 156.6 38.3651 156.84 38.0442C157.083 37.7233 157.424 37.4758 157.861 37.3019C158.302 37.1279 158.818 37.0409 159.409 37.0409C160.282 37.0409 160.969 37.2254 161.469 37.5943C161.973 37.9632 162.267 38.4655 162.351 39.1014Z" fill="#38FF9C"/>
</svg>
