<svg width="16" height="17" viewBox="0 0 16 17" fill="none" xmlns="http://www.w3.org/2000/svg">
<g id="Group 50">
<path id="Vector" d="M9.46139 7.33661C9.26218 7.33661 9.06254 7.26038 8.9105 7.10834C8.606 6.80426 8.606 6.31066 8.9105 6.00658L10.9254 3.99173C11.2294 3.68765 11.723 3.68765 12.0271 3.99173C12.3316 4.29581 12.3316 4.78942 12.0271 5.0935L10.0123 7.10834C9.86023 7.26038 9.6606 7.33661 9.46139 7.33661Z" fill="white"/>
<path id="Vector_2" d="M8 16.0406C3.58873 16.0406 0 12.4519 0 8.04102C0 3.63017 3.58873 0.0410156 8 0.0410156C12.4113 0.0410156 16 3.62975 16 8.04102C16 12.4523 12.4113 16.041 8 16.041V16.0406ZM8 1.59932C4.44833 1.59932 1.5583 4.48892 1.5583 8.04102C1.5583 11.5931 4.44791 14.4827 8 14.4827C11.5521 14.4827 14.4417 11.5931 14.4417 8.04102C14.4417 4.48892 11.5517 1.59932 8 1.59932Z" fill="white"/>
<path id="Vector_3" d="M4.52373 12.256C4.32452 12.256 4.12489 12.1798 3.97285 12.0278C3.66877 11.7237 3.66835 11.2301 3.97285 10.926L5.98769 8.91114C6.29177 8.60706 6.78538 8.60664 7.08946 8.91114C7.39354 9.21564 7.39396 9.70882 7.08946 10.0129L5.07461 12.0278C4.92257 12.1798 4.72294 12.256 4.52373 12.256Z" fill="white"/>
<path id="Vector_4" d="M7.82551 5.23548C6.43272 5.33529 5.30653 6.45559 5.21219 7.84922C5.20713 7.92461 5.17428 7.99578 5.12037 8.04927L3.98871 9.18262C3.92469 9.24706 3.81392 9.218 3.79076 9.12998C3.69895 8.77915 3.64209 8.40263 3.64209 8.02821C3.64209 5.61916 5.60176 3.65948 8.01082 3.65948C8.40334 3.65948 8.78407 3.71171 9.14628 3.809C9.21956 3.82879 9.24356 3.92061 9.19008 3.97452L8.0205 5.14493C7.96828 5.19715 7.89921 5.22958 7.82551 5.23506V5.23548Z" fill="white"/>
<path id="Vector_5" d="M10.8678 8L12.0382 6.83043C12.0917 6.77694 12.1839 6.80094 12.2037 6.87423C12.3014 7.23643 12.3532 7.61716 12.3532 8.00968C12.3532 10.4187 10.3936 12.3784 7.98451 12.3784C7.61052 12.3784 7.234 12.3216 6.88275 12.2297C6.79472 12.2066 6.76608 12.0962 6.8301 12.0318L7.96345 10.9001C8.01694 10.8466 8.08812 10.8138 8.1635 10.8083C9.55756 10.714 10.6774 9.58778 10.7772 8.195C10.7827 8.12129 10.8151 8.05222 10.8674 8H10.8678Z" fill="white"/>
</g>
</svg>
