<svg width="512" height="512" viewBox="0 0 512 512" fill="none" xmlns="http://www.w3.org/2000/svg">
<rect width="512" height="512" fill="#171717"/>
<path d="M300.326 234.52C294.272 234.52 288.205 232.204 283.584 227.583C274.33 218.341 274.33 203.34 283.584 194.098L344.819 132.863C354.061 123.621 369.062 123.621 378.304 132.863C387.558 142.104 387.558 157.106 378.304 166.348L317.069 227.583C312.448 232.204 306.381 234.52 300.326 234.52Z" fill="#38FF9C"/>
<path d="M255.936 499.06C121.869 499.06 12.8 389.991 12.8 255.937C12.8 121.882 121.869 12.8008 255.936 12.8008C390.003 12.8008 499.072 121.87 499.072 255.937C499.072 390.004 390.003 499.073 255.936 499.073V499.06ZM255.936 60.1608C147.994 60.1608 60.16 147.982 60.16 255.937C60.16 363.892 147.981 451.713 255.936 451.713C363.891 451.713 451.712 363.892 451.712 255.937C451.712 147.982 363.878 60.1608 255.936 60.1608Z" fill="#38FF9C"/>
<path d="M150.298 384.078C144.243 384.078 138.176 381.761 133.555 377.14C124.314 367.899 124.301 352.897 133.555 343.656L194.79 282.42C204.032 273.179 219.034 273.166 228.275 282.42C237.517 291.675 237.53 306.664 228.275 315.905L167.04 377.14C162.419 381.761 156.352 384.078 150.298 384.078Z" fill="#38FF9C"/>
<path d="M250.637 170.687C208.307 173.72 174.08 207.768 171.213 250.123C171.059 252.415 170.061 254.578 168.422 256.203L134.029 290.648C132.083 292.607 128.717 291.723 128.013 289.048C125.222 278.386 123.494 266.943 123.494 255.563C123.494 182.347 183.053 122.789 256.269 122.789C268.198 122.789 279.77 124.376 290.778 127.333C293.005 127.935 293.734 130.725 292.109 132.363L256.563 167.935C254.976 169.522 252.877 170.507 250.637 170.674V170.687Z" fill="#38FF9C"/>
<path d="M343.104 254.705L378.675 219.16C380.301 217.534 383.104 218.264 383.706 220.491C386.675 231.499 388.25 243.07 388.25 255C388.25 328.216 328.691 387.774 255.475 387.774C244.109 387.774 232.666 386.046 221.99 383.256C219.315 382.552 218.445 379.198 220.39 377.24L254.835 342.846C256.461 341.221 258.624 340.222 260.915 340.056C303.283 337.189 337.318 302.961 340.352 260.632C340.518 258.392 341.504 256.293 343.091 254.705H343.104Z" fill="#38FF9C"/>
</svg>
