<svg width="24" height="24" viewBox="0 0 24 24" fill="none" xmlns="http://www.w3.org/2000/svg">
<g id="FiAlertTriangle">
<path id="Vector (Stroke)" fill-rule="evenodd" clip-rule="evenodd" d="M10.5282 2.2833C10.9775 2.03035 11.4844 1.89746 12 1.89746C12.5156 1.89746 13.0225 2.03035 13.4718 2.2833C13.9211 2.53626 14.2976 2.90074 14.565 3.34158L14.5679 3.34633L23.0379 17.4863L23.046 17.5001C23.308 17.9538 23.4466 18.4681 23.448 18.9919C23.4495 19.5158 23.3138 20.0308 23.0544 20.4859C22.795 20.941 22.4209 21.3203 21.9694 21.5859C21.518 21.8516 21.0048 21.9944 20.481 22.0001L20.47 22.0003L3.51903 22.0002C2.99522 21.9944 2.48206 21.8516 2.03059 21.5859C1.57912 21.3203 1.20507 20.941 0.94567 20.4859C0.686267 20.0308 0.550547 19.5158 0.552014 18.9919C0.55348 18.4681 0.692083 17.9538 0.95403 17.5001L0.962153 17.4863L9.43215 3.34633L10.29 3.86019L9.43502 3.34158C9.70243 2.90074 10.0789 2.53626 10.5282 2.2833ZM11.1462 4.37684L2.68271 18.506C2.59753 18.6558 2.55249 18.8251 2.55201 18.9975C2.55152 19.1721 2.59676 19.3438 2.68322 19.4955C2.76969 19.6472 2.89438 19.7736 3.04487 19.8622C3.19404 19.95 3.36342 19.9975 3.53642 20.0002H20.4636C20.6366 19.9975 20.806 19.95 20.9552 19.8622C21.1057 19.7736 21.2303 19.6472 21.3168 19.4955C21.4033 19.3438 21.4485 19.1721 21.448 18.9975C21.4476 18.8251 21.4025 18.6559 21.3174 18.5061L12.855 4.37883C12.8546 4.37817 12.8542 4.37751 12.8538 4.37684C12.7648 4.23079 12.6397 4.11001 12.4906 4.02607C12.3409 3.94176 12.1719 3.89746 12 3.89746C11.8282 3.89746 11.6592 3.94176 11.5094 4.02607C11.3603 4.11001 11.2353 4.23079 11.1462 4.37684Z" fill="#28B56F"/>
<path id="Vector (Stroke)_2" fill-rule="evenodd" clip-rule="evenodd" d="M12 8C12.5523 8 13 8.44772 13 9V13C13 13.5523 12.5523 14 12 14C11.4477 14 11 13.5523 11 13V9C11 8.44772 11.4477 8 12 8Z" fill="#28B56F"/>
<path id="Vector (Stroke)_3" fill-rule="evenodd" clip-rule="evenodd" d="M11 17C11 16.4477 11.4477 16 12 16H12.01C12.5623 16 13.01 16.4477 13.01 17C13.01 17.5523 12.5623 18 12.01 18H12C11.4477 18 11 17.5523 11 17Z" fill="#28B56F"/>
</g>
</svg>
