<svg width="16" height="17" viewBox="0 0 16 17" fill="none" xmlns="http://www.w3.org/2000/svg">
<g id="FiArrowUpRight">
<path id="Vector (Stroke)" fill-rule="evenodd" clip-rule="evenodd" d="M11.8047 4.23628C12.0651 4.49663 12.0651 4.91874 11.8047 5.17909L5.13807 11.8458C4.87772 12.1061 4.45561 12.1061 4.19526 11.8458C3.93491 11.5854 3.93491 11.1633 4.19526 10.9029L10.8619 4.23628C11.1223 3.97593 11.5444 3.97593 11.8047 4.23628Z" fill="#A3FFD1"/>
<path id="Vector (Stroke)_2" fill-rule="evenodd" clip-rule="evenodd" d="M4 4.70768C4 4.33949 4.29848 4.04102 4.66667 4.04102H11.3333C11.7015 4.04102 12 4.33949 12 4.70768V11.3743C12 11.7425 11.7015 12.041 11.3333 12.041C10.9651 12.041 10.6667 11.7425 10.6667 11.3743V5.37435H4.66667C4.29848 5.37435 4 5.07587 4 4.70768Z" fill="#A3FFD1"/>
</g>
</svg>
