<svg width="16" height="16" viewBox="0 0 16 16" fill="none" xmlns="http://www.w3.org/2000/svg">
<g id="FiBookOpen">
<path id="Vector (Stroke)" fill-rule="evenodd" clip-rule="evenodd" d="M0.666687 2.00001C0.666687 1.63182 0.965164 1.33334 1.33335 1.33334H5.33335C6.21741 1.33334 7.06526 1.68453 7.69038 2.30965C8.3155 2.93478 8.66669 3.78262 8.66669 4.66668V14C8.66669 14.3682 8.36821 14.6667 8.00002 14.6667C7.63183 14.6667 7.33335 14.3682 7.33335 14C7.33335 13.6464 7.19288 13.3073 6.94283 13.0572C6.69278 12.8072 6.35364 12.6667 6.00002 12.6667H1.33335C0.965164 12.6667 0.666687 12.3682 0.666687 12V2.00001ZM7.33335 11.6906V4.66668C7.33335 4.13624 7.12264 3.62754 6.74757 3.25246C6.37249 2.87739 5.86379 2.66668 5.33335 2.66668H2.00002V11.3333H6.00002C6.47217 11.3333 6.93142 11.4586 7.33335 11.6906Z" fill="#A3FFD1"/>
<path id="Vector (Stroke)_2" fill-rule="evenodd" clip-rule="evenodd" d="M8.30962 2.30965C8.93474 1.68453 9.78259 1.33334 10.6666 1.33334H14.6666C15.0348 1.33334 15.3333 1.63182 15.3333 2.00001V12C15.3333 12.3682 15.0348 12.6667 14.6666 12.6667H9.99998C9.64636 12.6667 9.30722 12.8072 9.05717 13.0572C8.80712 13.3073 8.66665 13.6464 8.66665 14C8.66665 14.3682 8.36817 14.6667 7.99998 14.6667C7.63179 14.6667 7.33331 14.3682 7.33331 14V4.66668C7.33331 3.78262 7.6845 2.93478 8.30962 2.30965ZM8.66665 11.6906C9.06858 11.4586 9.52783 11.3333 9.99998 11.3333H14V2.66668H10.6666C10.1362 2.66668 9.62751 2.87739 9.25243 3.25246C8.87736 3.62754 8.66665 4.13624 8.66665 4.66668V11.6906Z" fill="#A3FFD1"/>
</g>
</svg>
