<svg width="16" height="17" viewBox="0 0 16 17" fill="none" xmlns="http://www.w3.org/2000/svg">
<g id="FiBook">
<path id="Vector (Stroke)" fill-rule="evenodd" clip-rule="evenodd" d="M4.33333 12.041C4.06812 12.041 3.81376 12.1464 3.62623 12.3339C3.43869 12.5215 3.33333 12.7758 3.33333 13.041C3.33333 13.4092 3.03486 13.7077 2.66667 13.7077C2.29848 13.7077 2 13.4092 2 13.041C2 12.4222 2.24583 11.8287 2.68342 11.3911C3.121 10.9535 3.71449 10.7077 4.33333 10.7077H13.3333C13.7015 10.7077 14 11.0062 14 11.3744C14 11.7426 13.7015 12.041 13.3333 12.041H4.33333Z" fill="#A3FFD1"/>
<path id="Vector (Stroke)_2" fill-rule="evenodd" clip-rule="evenodd" d="M4.33333 2.04104C4.06812 2.04104 3.81376 2.14639 3.62623 2.33393C3.43869 2.52147 3.33333 2.77582 3.33333 3.04104V13.041C3.33333 13.3063 3.43869 13.5606 3.62623 13.7481C3.81376 13.9357 4.06812 14.041 4.33333 14.041H12.6667V2.04104H4.33333ZM4.33333 0.707703H13.3333C13.7015 0.707703 14 1.00618 14 1.37437V14.7077C14 15.0759 13.7015 15.3744 13.3333 15.3744H4.33333C3.71449 15.3744 3.121 15.1285 2.68342 14.691C2.24583 14.2534 2 13.6599 2 13.041V3.04104C2 2.4222 2.24583 1.82871 2.68342 1.39112C3.121 0.953535 3.71449 0.707703 4.33333 0.707703Z" fill="#A3FFD1"/>
</g>
</svg>
