<svg width="16" height="16" viewBox="0 0 16 16" fill="none" xmlns="http://www.w3.org/2000/svg">
<g id="FiBox">
<path id="Vector (Stroke)" fill-rule="evenodd" clip-rule="evenodd" d="M7.00141 0.935155C7.3051 0.760153 7.64946 0.66803 7.99998 0.66803C8.35052 0.66803 8.69489 0.760161 8.99859 0.935177C8.99905 0.935444 8.99952 0.935711 8.99998 0.935979L13.6666 3.60264C13.9704 3.77801 14.2227 4.03016 14.3982 4.33381C14.5737 4.63746 14.6663 4.98192 14.6666 5.33265V10.6673C14.6663 11.0181 14.5737 11.3625 14.3982 11.6662C14.2227 11.9698 13.9704 12.222 13.6666 12.3973L13.6641 12.3988L8.99998 15.064C8.99958 15.0642 8.99918 15.0645 8.99878 15.0647C8.69504 15.2398 8.35059 15.332 7.99998 15.332C7.64938 15.332 7.30495 15.2398 7.00121 15.0647C7.0008 15.0645 7.00039 15.0643 6.99998 15.064L2.33589 12.3988L2.33331 12.3973C2.02958 12.222 1.77729 11.9698 1.60177 11.6662C1.42626 11.3625 1.33367 11.0181 1.33331 10.6673V5.33265C1.33367 4.98192 1.42626 4.63746 1.60177 4.33381C1.77729 4.03016 2.02958 3.77801 2.33331 3.60265L2.33588 3.60116L7.00141 0.935155ZM7.99998 2.00136C7.88295 2.00136 7.76799 2.03217 7.66665 2.09068L7.66408 2.09216L2.99998 4.75735C2.99963 4.75755 2.99928 4.75775 2.99893 4.75795C2.89815 4.81638 2.81444 4.9002 2.75613 5.00107C2.69767 5.1022 2.66682 5.21692 2.66665 5.33372V10.6663C2.66682 10.7831 2.69767 10.8978 2.75613 10.9989C2.81444 11.0998 2.89815 11.1836 2.99893 11.242C2.99928 11.2422 2.99963 11.2424 2.99998 11.2426L7.66665 13.9093C7.76799 13.9678 7.88296 13.9986 7.99998 13.9986C8.117 13.9986 8.23197 13.9678 8.33331 13.9093L8.33589 13.9078L13 11.2426C13.0003 11.2424 13.0007 11.2422 13.001 11.242C13.1018 11.1836 13.1855 11.0998 13.2438 10.9989C13.3023 10.8977 13.3332 10.7829 13.3333 10.666V5.33401C13.3332 5.2171 13.3023 5.10228 13.2438 5.00107C13.1855 4.9002 13.1018 4.81639 13.001 4.75796C13.0007 4.75775 13.0003 4.75755 13 4.75735L8.33331 2.09069C8.23196 2.03217 8.117 2.00136 7.99998 2.00136Z" fill="#A3FFD1"/>
<path id="Vector (Stroke)_2" fill-rule="evenodd" clip-rule="evenodd" d="M1.60289 4.30617C1.78725 3.98746 2.19507 3.87855 2.51378 4.06291L7.99996 7.23648L13.4861 4.06291C13.8049 3.87855 14.2127 3.98746 14.397 4.30617C14.5814 4.62488 14.4725 5.03269 14.1538 5.21705L8.33378 8.58372C8.12726 8.70318 7.87266 8.70318 7.66614 8.58372L1.84615 5.21705C1.52744 5.03269 1.41853 4.62488 1.60289 4.30617Z" fill="#A3FFD1"/>
<path id="Vector (Stroke)_3" fill-rule="evenodd" clip-rule="evenodd" d="M7.99998 7.33331C8.36817 7.33331 8.66665 7.63179 8.66665 7.99998V14.72C8.66665 15.0882 8.36817 15.3866 7.99998 15.3866C7.63179 15.3866 7.33331 15.0882 7.33331 14.72V7.99998C7.33331 7.63179 7.63179 7.33331 7.99998 7.33331Z" fill="#A3FFD1"/>
</g>
</svg>
