<svg width="17" height="16" viewBox="0 0 17 16" fill="none" xmlns="http://www.w3.org/2000/svg">
<g id="FiSettings">
<path id="Vector (Stroke)" fill-rule="evenodd" clip-rule="evenodd" d="M8.49998 6.66668C7.7636 6.66668 7.16665 7.26363 7.16665 8.00001C7.16665 8.73639 7.7636 9.33334 8.49998 9.33334C9.23636 9.33334 9.83331 8.73639 9.83331 8.00001C9.83331 7.26363 9.23636 6.66668 8.49998 6.66668ZM5.83331 8.00001C5.83331 6.52725 7.02722 5.33334 8.49998 5.33334C9.97274 5.33334 11.1666 6.52725 11.1666 8.00001C11.1666 9.47277 9.97274 10.6667 8.49998 10.6667C7.02722 10.6667 5.83331 9.47277 5.83331 8.00001Z" fill="#A3FFD1"/>
<path id="Vector (Stroke)_2" fill-rule="evenodd" clip-rule="evenodd" d="M8.5 1.33333C8.32319 1.33333 8.15362 1.40357 8.0286 1.5286C7.90357 1.65362 7.83333 1.82319 7.83333 2V2.11599C7.83196 2.46053 7.72986 2.79715 7.53963 3.08441C7.34939 3.37167 7.0793 3.59703 6.76262 3.73276C6.70625 3.75692 6.64695 3.77313 6.58641 3.78104C6.29865 3.88181 5.98888 3.90665 5.68733 3.85197C5.34 3.789 5.0195 3.62341 4.76716 3.37658L4.7619 3.37143L4.72193 3.3314C4.66001 3.26942 4.58623 3.21999 4.50529 3.18644C4.42436 3.15289 4.33761 3.13562 4.25 3.13562C4.16239 3.13562 4.07564 3.15289 3.99471 3.18644C3.91377 3.21999 3.84025 3.26916 3.77833 3.33114L3.77781 3.33167C3.71582 3.39358 3.66665 3.46711 3.6331 3.54804C3.59955 3.62897 3.58228 3.71572 3.58228 3.80333C3.58228 3.89094 3.59955 3.97769 3.6331 4.05863C3.66665 4.13956 3.71582 4.21308 3.77781 4.275L3.82327 4.32046C4.07011 4.57281 4.23566 4.89334 4.29864 5.24067C4.36036 5.58109 4.32075 5.93198 4.18497 6.24985C4.06126 6.57422 3.84465 6.85511 3.56203 7.05725C3.2737 7.26348 2.92999 7.37819 2.57559 7.38648L2.56 7.38667H2.5C2.32319 7.38667 2.15362 7.4569 2.0286 7.58193C1.90357 7.70695 1.83333 7.87652 1.83333 8.05333C1.83333 8.23014 1.90357 8.39971 2.0286 8.52474C2.15362 8.64976 2.32319 8.72 2.5 8.72H2.61599C2.96053 8.72137 3.29715 8.82347 3.58441 9.01371C3.87067 9.20329 4.09547 9.47215 4.23134 9.78741C4.37272 10.1095 4.41474 10.4665 4.35197 10.8127C4.289 11.16 4.12341 11.4805 3.87658 11.7328L3.87143 11.7381L3.8314 11.7781C3.76942 11.84 3.71999 11.9138 3.68644 11.9947C3.65289 12.0756 3.63562 12.1624 3.63562 12.25C3.63562 12.3376 3.65289 12.4244 3.68644 12.5053C3.71999 12.5862 3.76916 12.6598 3.83114 12.7217L3.83167 12.7222C3.89358 12.7842 3.96711 12.8333 4.04804 12.8669C4.12897 12.9004 4.21572 12.9177 4.30333 12.9177C4.39094 12.9177 4.47769 12.9004 4.55863 12.8669C4.63956 12.8333 4.71309 12.7842 4.775 12.7222L4.82046 12.6767C5.07281 12.4299 5.39334 12.2643 5.74067 12.2014C6.08108 12.1396 6.43197 12.1792 6.74985 12.315C7.07422 12.4387 7.35511 12.6553 7.55725 12.938C7.76348 13.2263 7.87819 13.57 7.88648 13.9244L7.88667 13.94V14C7.88667 14.1768 7.9569 14.3464 8.08193 14.4714C8.20695 14.5964 8.37652 14.6667 8.55333 14.6667C8.73014 14.6667 8.89971 14.5964 9.02474 14.4714C9.14976 14.3464 9.22 14.1768 9.22 14V13.8867L9.22001 13.884C9.22138 13.5395 9.32347 13.2029 9.51371 12.9156C9.7033 12.6293 9.9722 12.4045 10.2875 12.2686C10.6096 12.1273 10.9665 12.0853 11.3127 12.148C11.66 12.211 11.9805 12.3766 12.2328 12.6234L12.2381 12.6286L12.2781 12.6686C12.34 12.7306 12.4138 12.78 12.4947 12.8136C12.5756 12.8471 12.6624 12.8644 12.75 12.8644C12.8376 12.8644 12.9244 12.8471 13.0053 12.8136C13.0862 12.78 13.1598 12.7308 13.2217 12.6689L13.2222 12.6683C13.2842 12.6064 13.3333 12.5329 13.3669 12.452C13.4004 12.371 13.4177 12.2843 13.4177 12.1967C13.4177 12.1091 13.4004 12.0223 13.3669 11.9414C13.3333 11.8604 13.2842 11.7869 13.2222 11.725L13.1767 11.6795C12.9299 11.4272 12.7643 11.1067 12.7014 10.7593C12.6386 10.4132 12.6806 10.0562 12.822 9.73416C12.9578 9.41887 13.1826 9.14997 13.4689 8.96037C13.7562 8.77014 14.0928 8.66805 14.4373 8.66667L14.44 8.66666L14.5 8.66667C14.6768 8.66667 14.8464 8.59643 14.9714 8.47141C15.0964 8.34638 15.1667 8.17681 15.1667 8C15.1667 7.82319 15.0964 7.65362 14.9714 7.5286C14.8464 7.40357 14.6768 7.33333 14.5 7.33333H14.3867L14.384 7.33333C14.0395 7.33195 13.7029 7.22986 13.4156 7.03963C13.1283 6.84939 12.903 6.5793 12.7672 6.26262C12.7431 6.20625 12.7269 6.14695 12.719 6.08641C12.6182 5.79865 12.5933 5.48888 12.648 5.18733C12.711 4.84 12.8766 4.5195 13.1234 4.26716L13.1286 4.2619L13.1686 4.22193C13.2306 4.16001 13.28 4.08622 13.3136 4.00529C13.3471 3.92436 13.3644 3.83761 13.3644 3.75C13.3644 3.66239 13.3471 3.57564 13.3136 3.49471C13.28 3.41378 13.2308 3.34025 13.1689 3.27833L13.1683 3.27781C13.1064 3.21582 13.0329 3.16665 12.952 3.1331C12.871 3.09955 12.7843 3.08228 12.6967 3.08228C12.6091 3.08228 12.5223 3.09955 12.4414 3.1331C12.3604 3.16665 12.2869 3.21583 12.225 3.27781L12.1795 3.32327C11.9272 3.57011 11.6067 3.73566 11.2593 3.79864C10.9132 3.86141 10.5562 3.81939 10.2341 3.67801C9.91882 3.54213 9.64995 3.31734 9.46037 3.03108C9.27014 2.74382 9.16805 2.4072 9.16667 2.06266L9.16667 2.06V2C9.16667 1.82319 9.09643 1.65362 8.97141 1.5286C8.84638 1.40357 8.67681 1.33333 8.5 1.33333ZM13.4333 10L14.0432 10.2692C14.0083 10.3484 13.9979 10.4363 14.0133 10.5215C14.0286 10.6057 14.0685 10.6835 14.1279 10.7451L14.1645 10.7817C14.1644 10.7816 14.1646 10.7818 14.1645 10.7817C14.3503 10.9674 14.498 11.1881 14.5986 11.4308C14.6992 11.6736 14.751 11.9338 14.751 12.1967C14.751 12.4595 14.6992 12.7198 14.5986 12.9625C14.4979 13.2053 14.3504 13.4259 14.1645 13.6117L13.6933 13.14L14.165 13.6111C13.9793 13.7971 13.7587 13.9446 13.5159 14.0453C13.2731 14.1459 13.0128 14.1977 12.75 14.1977C12.4872 14.1977 12.2269 14.1459 11.9841 14.0453C11.7414 13.9447 11.521 13.7972 11.3353 13.6114C11.3352 13.6113 11.3353 13.6115 11.3353 13.6114L11.2984 13.5746C11.2369 13.5151 11.159 13.4752 11.0748 13.46C10.9896 13.4445 10.9017 13.4549 10.8225 13.4899L10.816 13.4928C10.7383 13.5261 10.672 13.5813 10.6254 13.6518C10.5789 13.722 10.5539 13.8042 10.5533 13.8883V14C10.5533 14.5304 10.3426 15.0391 9.96755 15.4142C9.59247 15.7893 9.08377 16 8.55333 16C8.0229 16 7.51419 15.7893 7.13912 15.4142C6.76405 15.0391 6.55333 14.5304 6.55333 14V13.9496C6.55017 13.8648 6.52218 13.7827 6.47276 13.7136C6.42218 13.6429 6.35149 13.589 6.26988 13.559C6.2567 13.5542 6.24367 13.5489 6.23082 13.5432C6.15161 13.5083 6.06374 13.4979 5.97855 13.5133C5.89428 13.5286 5.81645 13.5685 5.75487 13.6279L5.71833 13.6645C5.71825 13.6646 5.71842 13.6644 5.71833 13.6645C5.53264 13.8503 5.3119 13.998 5.06921 14.0986C4.82642 14.1992 4.56617 14.251 4.30333 14.251C4.0405 14.251 3.78025 14.1992 3.53745 14.0986C3.29489 13.998 3.0745 13.8507 2.88886 13.665C2.7029 13.4793 2.55539 13.2587 2.45474 13.0159C2.35409 12.7731 2.30228 12.5128 2.30228 12.25C2.30228 11.9872 2.35409 11.7269 2.45474 11.4841C2.55539 11.2413 2.7029 11.0207 2.88886 10.835L2.92541 10.7985C2.98486 10.7369 3.02475 10.659 3.04003 10.5748C3.05548 10.4896 3.04505 10.4017 3.01009 10.3225L3.0072 10.316C2.97391 10.2383 2.91867 10.172 2.84821 10.1254C2.77803 10.0789 2.69583 10.0539 2.61167 10.0533H2.5C1.96957 10.0533 1.46086 9.84262 1.08579 9.46755C0.710714 9.09247 0.5 8.58377 0.5 8.05333C0.5 7.5229 0.710714 7.01419 1.08579 6.63912C1.46086 6.26405 1.96957 6.05333 2.5 6.05333H2.55043C2.63522 6.05017 2.71728 6.02218 2.78637 5.97276C2.85709 5.92218 2.91096 5.85149 2.94098 5.76988C2.94582 5.7567 2.95109 5.74367 2.95676 5.73082C2.99172 5.65161 3.00215 5.56374 2.9867 5.47855C2.97142 5.39428 2.93152 5.31645 2.87206 5.25487L2.83552 5.21833C2.64957 5.03259 2.50205 4.81201 2.40141 4.56921C2.30076 4.32642 2.24895 4.06616 2.24895 3.80333C2.24895 3.5405 2.30076 3.28025 2.40141 3.03745C2.50201 2.79477 2.64943 2.57429 2.83526 2.3886C3.02095 2.20277 3.24144 2.05534 3.48412 1.95474C3.72692 1.85409 3.98717 1.80228 4.25 1.80228C4.51283 1.80228 4.77308 1.85409 5.01588 1.95474C5.25868 2.05539 5.47925 2.2029 5.665 2.38886L5.70154 2.4254C5.76312 2.48485 5.84095 2.52475 5.92521 2.54003C6.01041 2.55548 6.09828 2.54505 6.17749 2.51009C6.22018 2.49125 6.26462 2.47699 6.31005 2.46748C6.35653 2.43593 6.39666 2.39549 6.42796 2.34821C6.47444 2.27803 6.49947 2.19583 6.5 2.11167V2C6.5 1.46957 6.71071 0.960859 7.08579 0.585786C7.46086 0.210714 7.96957 0 8.5 0C9.03043 0 9.53914 0.210714 9.91421 0.585786C10.2893 0.960859 10.5 1.46957 10.5 2V2.05833C10.5005 2.1425 10.5256 2.22469 10.572 2.29488C10.6187 2.36534 10.6849 2.42062 10.7626 2.45391L10.7692 2.45672C10.8484 2.49168 10.9363 2.50215 11.0215 2.4867C11.1057 2.47142 11.1835 2.43152 11.2451 2.37207L11.2817 2.33552C11.4674 2.14957 11.688 2.00205 11.9308 1.90141C12.1736 1.80076 12.4338 1.74895 12.6967 1.74895C12.9595 1.74895 13.2198 1.80076 13.4625 1.90141C13.7053 2.00205 13.9259 2.14957 14.1117 2.33552C14.2974 2.52116 14.4447 2.74155 14.5453 2.98412C14.6459 3.22691 14.6977 3.48717 14.6977 3.75C14.6977 4.01283 14.6459 4.27309 14.5453 4.51588C14.4447 4.75856 14.2972 4.97905 14.1114 5.16474C14.1113 5.16482 14.1115 5.16465 14.1114 5.16474L14.0746 5.20154C14.0151 5.26312 13.9752 5.34095 13.96 5.42521C13.9445 5.51041 13.9549 5.59828 13.9899 5.67749C14.0087 5.72018 14.023 5.76462 14.0325 5.81004C14.0641 5.85653 14.1045 5.89665 14.1518 5.92796C14.222 5.97444 14.3042 5.99947 14.3883 6H14.5C15.0304 6 15.5391 6.21071 15.9142 6.58579C16.2893 6.96086 16.5 7.46957 16.5 8C16.5 8.53043 16.2893 9.03914 15.9142 9.41421C15.5391 9.78929 15.0304 10 14.5 10H14.4417C14.3575 10.0005 14.2753 10.0256 14.2051 10.072C14.1347 10.1187 14.0794 10.1849 14.0461 10.2626L13.4333 10Z" fill="#A3FFD1"/>
</g>
</svg>
