<svg width="16" height="16" viewBox="0 0 16 16" fill="none" xmlns="http://www.w3.org/2000/svg">
<g id="FiUsers">
<path id="Vector (Stroke)" fill-rule="evenodd" clip-rule="evenodd" d="M0.976311 10.3097C1.60143 9.68453 2.44928 9.33334 3.33333 9.33334H8.66667C9.55072 9.33334 10.3986 9.68453 11.0237 10.3097C11.6488 10.9348 12 11.7826 12 12.6667V14C12 14.3682 11.7015 14.6667 11.3333 14.6667C10.9651 14.6667 10.6667 14.3682 10.6667 14V12.6667C10.6667 12.1362 10.456 11.6275 10.0809 11.2525C9.70581 10.8774 9.1971 10.6667 8.66667 10.6667H3.33333C2.8029 10.6667 2.29419 10.8774 1.91912 11.2525C1.54405 11.6275 1.33333 12.1362 1.33333 12.6667V14C1.33333 14.3682 1.03486 14.6667 0.666667 14.6667C0.298477 14.6667 0 14.3682 0 14V12.6667C0 11.7826 0.35119 10.9348 0.976311 10.3097Z" fill="#A3FFD1"/>
<path id="Vector (Stroke)_2" fill-rule="evenodd" clip-rule="evenodd" d="M6.00002 2.66668C4.89545 2.66668 4.00002 3.56211 4.00002 4.66668C4.00002 5.77125 4.89545 6.66668 6.00002 6.66668C7.10459 6.66668 8.00002 5.77125 8.00002 4.66668C8.00002 3.56211 7.10459 2.66668 6.00002 2.66668ZM2.66669 4.66668C2.66669 2.82573 4.15907 1.33334 6.00002 1.33334C7.84097 1.33334 9.33335 2.82573 9.33335 4.66668C9.33335 6.50763 7.84097 8.00001 6.00002 8.00001C4.15907 8.00001 2.66669 6.50763 2.66669 4.66668Z" fill="#A3FFD1"/>
<path id="Vector (Stroke)_3" fill-rule="evenodd" clip-rule="evenodd" d="M12.6878 9.91999C12.7799 9.56349 13.1435 9.34911 13.5 9.44116C14.2151 9.6258 14.8486 10.0427 15.3011 10.6264C15.7536 11.2101 15.9994 11.9276 16 12.6662L16 14C16 14.3682 15.7015 14.6667 15.3333 14.6667C14.9651 14.6667 14.6667 14.3682 14.6667 14V12.6672C14.6667 12.6671 14.6667 12.6672 14.6667 12.6672C14.6663 12.2241 14.5188 11.7935 14.2473 11.4433C13.9759 11.0931 13.5957 10.8429 13.1667 10.7322C12.8102 10.6401 12.5958 10.2765 12.6878 9.91999Z" fill="#A3FFD1"/>
<path id="Vector (Stroke)_4" fill-rule="evenodd" clip-rule="evenodd" d="M10.0208 1.9213C10.1121 1.56461 10.4753 1.3495 10.832 1.44082C11.549 1.62441 12.1845 2.04141 12.6384 2.62608C13.0922 3.21076 13.3385 3.92985 13.3385 4.66999C13.3385 5.41013 13.0922 6.12922 12.6384 6.7139C12.1845 7.29857 11.549 7.71557 10.832 7.89916C10.4753 7.99048 10.1121 7.77537 10.0208 7.41868C9.92949 7.062 10.1446 6.69882 10.5013 6.60749C10.9315 6.49734 11.3128 6.24714 11.5851 5.89634C11.8574 5.54553 12.0052 5.11408 12.0052 4.66999C12.0052 4.22591 11.8574 3.79445 11.5851 3.44365C11.3128 3.09284 10.9315 2.84264 10.5013 2.73249C10.1446 2.64117 9.92949 2.27798 10.0208 1.9213Z" fill="#A3FFD1"/>
</g>
</svg>
