<svg width="16" height="16" viewBox="0 0 16 16" fill="none" xmlns="http://www.w3.org/2000/svg">
<g id="FiWifi">
<path id="Vector (Stroke)" fill-rule="evenodd" clip-rule="evenodd" d="M8.0267 7.33474C6.46768 7.33474 4.95795 7.88113 3.76004 8.8789C3.47713 9.11455 3.05676 9.07623 2.82112 8.79332C2.58548 8.51041 2.6238 8.09005 2.9067 7.8544C4.3442 6.65707 6.15587 6.0014 8.0267 6.0014C9.89754 6.0014 11.7092 6.65707 13.1467 7.8544C13.4296 8.09005 13.4679 8.51041 13.2323 8.79332C12.9966 9.07623 12.5763 9.11455 12.2934 8.8789C11.0955 7.88113 9.58573 7.33474 8.0267 7.33474Z" fill="#A3FFD1"/>
<path id="Vector (Stroke)_2" fill-rule="evenodd" clip-rule="evenodd" d="M8.00004 4.00176C5.56522 4.00176 3.21405 4.89008 1.38754 6.5001C1.11133 6.74357 0.690059 6.71703 0.446594 6.44083C0.203128 6.16462 0.229667 5.74335 0.505871 5.49988C2.57592 3.67519 5.24058 2.66843 8.00004 2.66843C10.7595 2.66843 13.4242 3.67519 15.4942 5.49988C15.7704 5.74335 15.7969 6.16462 15.5535 6.44083C15.31 6.71703 14.8887 6.74357 14.6125 6.5001C12.786 4.89008 10.4349 4.00176 8.00004 4.00176Z" fill="#A3FFD1"/>
<path id="Vector (Stroke)_3" fill-rule="evenodd" clip-rule="evenodd" d="M8.00335 10.6675C7.3115 10.6675 6.63679 10.8828 6.07279 11.2835C5.77264 11.4967 5.35645 11.4263 5.14321 11.1261C4.92996 10.826 5.00042 10.4098 5.30057 10.1965C6.09017 9.63555 7.03476 9.33417 8.00335 9.33417C8.97193 9.33417 9.91652 9.63555 10.7061 10.1965C11.0063 10.4098 11.0767 10.826 10.8635 11.1261C10.6502 11.4263 10.2341 11.4967 9.9339 11.2835C9.3699 10.8828 8.69519 10.6675 8.00335 10.6675Z" fill="#A3FFD1"/>
<path id="Vector (Stroke)_4" fill-rule="evenodd" clip-rule="evenodd" d="M7.33331 13.3333C7.33331 12.9651 7.63179 12.6667 7.99998 12.6667H8.00665C8.37484 12.6667 8.67331 12.9651 8.67331 13.3333C8.67331 13.7015 8.37484 14 8.00665 14H7.99998C7.63179 14 7.33331 13.7015 7.33331 13.3333Z" fill="#A3FFD1"/>
</g>
</svg>
