<svg width="25" height="25" viewBox="0 0 25 25" fill="none" xmlns="http://www.w3.org/2000/svg">
<g id="Github">
<path id="Vector" d="M12.7226 3.21844C10.5797 3.21853 8.50668 3.98114 6.87457 5.3698C5.24245 6.75846 4.15771 8.68256 3.81444 10.7978C3.47117 12.9131 3.89177 15.0815 5.00098 16.915C6.11019 18.7486 7.83563 20.1276 9.86856 20.8053C10.3198 20.8843 10.489 20.6136 10.489 20.3767C10.489 20.1623 10.4777 19.4516 10.4777 18.6958C8.21025 19.1132 7.62365 18.1431 7.44315 17.6354C7.24287 17.1417 6.92538 16.7042 6.51812 16.3607C6.20226 16.1915 5.75102 15.7741 6.50683 15.7628C6.79543 15.7941 7.07223 15.8945 7.31377 16.0556C7.55531 16.2166 7.75447 16.4335 7.89439 16.6878C8.01782 16.9095 8.18379 17.1047 8.3828 17.2622C8.5818 17.4197 8.80992 17.5364 9.05409 17.6055C9.29826 17.6747 9.55368 17.695 9.80571 17.6653C10.0577 17.6356 10.3014 17.5564 10.5228 17.4324C10.5619 16.9736 10.7664 16.5446 11.0982 16.2253C9.09016 15.9997 6.99192 15.2213 6.99192 11.7694C6.97924 10.8725 7.31021 10.0047 7.91695 9.34399C7.64105 8.56446 7.67333 7.70897 8.0072 6.95244C8.0072 6.95244 8.76299 6.71554 10.489 7.87748C11.9657 7.47134 13.5246 7.47134 15.0013 7.87748C16.7273 6.70427 17.4831 6.95244 17.4831 6.95244C17.8171 7.70896 17.8493 8.56446 17.5734 9.34399C18.182 10.0035 18.5132 10.8721 18.4984 11.7694C18.4984 15.2326 16.3889 15.9997 14.3809 16.2253C14.5963 16.4436 14.7621 16.7057 14.8673 16.9938C14.9724 17.2819 15.0143 17.5892 14.9901 17.8949C14.9901 19.102 14.9788 20.0721 14.9788 20.3767C14.9788 20.6136 15.148 20.8956 15.5992 20.8054C17.6286 20.1221 19.3491 18.7398 20.4535 16.9054C21.558 15.0709 21.9746 12.9036 21.629 10.7904C21.2833 8.67717 20.1979 6.75556 18.5665 5.36859C16.9351 3.98162 14.8639 3.21956 12.7226 3.21844Z" fill="#A3FFD1"/>
</g>
</svg>
