<svg width="19" height="19" viewBox="0 0 19 19" fill="none" xmlns="http://www.w3.org/2000/svg">
<g id="discord">
<path id="Vector" d="M15.2271 4.0774C14.143 3.58627 12.9986 3.23784 11.823 3.04102C11.6621 3.32559 11.5166 3.61838 11.3869 3.91816C10.1347 3.73143 8.86132 3.73143 7.60911 3.91816C7.4794 3.61841 7.33385 3.32562 7.17305 3.04102C5.99673 3.2395 4.85154 3.58875 3.76638 4.07997C1.61207 7.23408 1.02807 10.3099 1.32007 13.342C2.58169 14.2644 3.9938 14.9659 5.49502 15.416C5.83305 14.9661 6.13217 14.4888 6.38919 13.9892C5.90101 13.8088 5.42983 13.5862 4.9811 13.324C5.0992 13.2392 5.2147 13.1519 5.32631 13.0671C6.63201 13.6748 8.0571 13.9898 9.49997 13.9898C10.9428 13.9898 12.3679 13.6748 13.6736 13.0671C13.7865 13.1583 13.902 13.2456 14.0188 13.324C13.5692 13.5866 13.0972 13.8096 12.6082 13.9905C12.8649 14.4899 13.164 14.9668 13.5023 15.416C15.0048 14.9677 16.418 14.2665 17.6799 13.3432C18.0225 9.82697 17.0946 6.77946 15.2271 4.0774ZM6.75906 11.4772C5.94535 11.4772 5.2731 10.7465 5.2731 9.84752C5.2731 8.94855 5.92199 8.21139 6.75647 8.21139C7.59094 8.21139 8.258 8.94855 8.24372 9.84752C8.22944 10.7465 7.58834 11.4772 6.75906 11.4772ZM12.2409 11.4772C11.4259 11.4772 10.7562 10.7465 10.7562 9.84752C10.7562 8.94855 11.4051 8.21139 12.2409 8.21139C13.0767 8.21139 13.7385 8.94855 13.7242 9.84752C13.71 10.7465 13.0702 11.4772 12.2409 11.4772Z" fill="#A3FFD1"/>
</g>
</svg>
