<svg width="25" height="25" viewBox="0 0 25 25" fill="none" xmlns="http://www.w3.org/2000/svg">
<g id="discord">
<path id="Vector" d="M20.1361 5.40236C18.6907 4.74751 17.1648 4.28294 15.5973 4.02051C15.3828 4.39994 15.1888 4.79032 15.0159 5.19003C13.3463 4.94106 11.6484 4.94106 9.97881 5.19003C9.80587 4.79037 9.6118 4.39999 9.3974 4.02051C7.82897 4.28515 6.30205 4.75083 4.85518 5.40578C1.98276 9.61126 1.20409 13.7123 1.59342 17.7551C3.27558 18.985 5.1584 19.9203 7.16003 20.5205C7.61074 19.9206 8.00956 19.2843 8.35226 18.6181C7.70135 18.3775 7.07311 18.0807 6.4748 17.7311C6.63227 17.6181 6.78627 17.5017 6.93508 17.3887C8.67601 18.1988 10.5761 18.6189 12.5 18.6189C14.4238 18.6189 16.3239 18.1988 18.0648 17.3887C18.2154 17.5102 18.3694 17.6267 18.5251 17.7311C17.9257 18.0813 17.2963 18.3787 16.6442 18.6198C16.9865 19.2857 17.3853 19.9215 17.8364 20.5205C19.8398 19.9228 21.724 18.9878 23.4065 17.7568C23.8633 13.0685 22.6261 9.0051 20.1361 5.40236ZM8.84541 15.2688C7.76047 15.2688 6.86414 14.2945 6.86414 13.0958C6.86414 11.8972 7.72932 10.9143 8.84195 10.9143C9.95458 10.9143 10.844 11.8972 10.825 13.0958C10.8059 14.2945 9.95112 15.2688 8.84541 15.2688ZM16.1545 15.2688C15.0678 15.2688 14.175 14.2945 14.175 13.0958C14.175 11.8972 15.0401 10.9143 16.1545 10.9143C17.2689 10.9143 18.1514 11.8972 18.1323 13.0958C18.1133 14.2945 17.2602 15.2688 16.1545 15.2688Z" fill="#A3FFD1"/>
</g>
</svg>
