<svg width="16" height="16" viewBox="0 0 16 16" fill="none" xmlns="http://www.w3.org/2000/svg">
<g id="FiHome">
<path id="Vector (Stroke)" fill-rule="evenodd" clip-rule="evenodd" d="M7.59069 0.807119C7.83143 0.619876 8.16853 0.619876 8.40927 0.807119L14.4093 5.47379C14.5717 5.60009 14.6666 5.79429 14.6666 6.00002V13.3334C14.6666 13.8638 14.4559 14.3725 14.0809 14.7476C13.7058 15.1226 13.1971 15.3334 12.6666 15.3334H3.33331C2.80288 15.3334 2.29417 15.1226 1.9191 14.7476C1.54403 14.3725 1.33331 13.8638 1.33331 13.3334V6.00002C1.33331 5.79429 1.42829 5.60009 1.59069 5.47379L7.59069 0.807119ZM2.66665 6.32608V13.3334C2.66665 13.5102 2.73688 13.6797 2.86191 13.8048C2.98693 13.9298 3.1565 14 3.33331 14H12.6666C12.8435 14 13.013 13.9298 13.1381 13.8048C13.2631 13.6797 13.3333 13.5102 13.3333 13.3334V6.32608L7.99998 2.17793L2.66665 6.32608Z" fill="#A3FFD1"/>
<path id="Vector (Stroke)_2" fill-rule="evenodd" clip-rule="evenodd" d="M5.33331 7.99998C5.33331 7.63179 5.63179 7.33331 5.99998 7.33331H9.99998C10.3682 7.33331 10.6666 7.63179 10.6666 7.99998V14.6666C10.6666 15.0348 10.3682 15.3333 9.99998 15.3333C9.63179 15.3333 9.33331 15.0348 9.33331 14.6666V8.66665H6.66665V14.6666C6.66665 15.0348 6.36817 15.3333 5.99998 15.3333C5.63179 15.3333 5.33331 15.0348 5.33331 14.6666V7.99998Z" fill="#A3FFD1"/>
</g>
</svg>
