<svg width="16" height="16" viewBox="0 0 16 16" fill="none" xmlns="http://www.w3.org/2000/svg">
<g id="FiTrendingUp">
<path id="Vector (Stroke)" fill-rule="evenodd" clip-rule="evenodd" d="M15.8047 3.52861C16.0651 3.78896 16.0651 4.21107 15.8047 4.47141L9.47141 10.8047C9.21106 11.0651 8.78895 11.0651 8.5286 10.8047L5.66667 7.94282L1.13807 12.4714C0.877722 12.7318 0.455612 12.7318 0.195262 12.4714C-0.0650874 12.2111 -0.0650874 11.789 0.195262 11.5286L5.19526 6.52861C5.45561 6.26826 5.87772 6.26826 6.13807 6.52861L9 9.39053L14.8619 3.52861C15.1223 3.26826 15.5444 3.26826 15.8047 3.52861Z" fill="#A3FFD1"/>
<path id="Vector (Stroke)_2" fill-rule="evenodd" clip-rule="evenodd" d="M10.6667 4.00001C10.6667 3.63182 10.9652 3.33334 11.3334 3.33334H15.3334C15.7015 3.33334 16 3.63182 16 4.00001V8.00001C16 8.3682 15.7015 8.66668 15.3334 8.66668C14.9652 8.66668 14.6667 8.3682 14.6667 8.00001V4.66668H11.3334C10.9652 4.66668 10.6667 4.3682 10.6667 4.00001Z" fill="#A3FFD1"/>
</g>
</svg>
