<?xml version="1.0" encoding="UTF-8"?>
<svg id="Layer_1" xmlns="http://www.w3.org/2000/svg" version="1.1" viewBox="0 0 16 17" height="17" width="16">
  <!-- Generator: Adobe Illustrator 29.1.0, SVG Export Plug-In . SVG Version: 2.1.0 Build 142)  -->
  <defs>
    <style>
      .st0 {
        fill: #a3ffd1;
      }
    </style>
  </defs>
  <g id="Layer_11" data-name="Layer_1">
    <path class="st0" d="M13.9,7.3h0l-1.7-4.4s0-.2-.2-.2h-.5s-.1.1-.1.2l-1.1,3.4h-4.5l-1.1-3.3s0-.2,0-.2c0-.1-.3-.1-.5,0,0,0,0,.1-.2.2l-1.7,4.3h0c-.5,1.3,0,2.8,1,3.6h0l2.5,1.9,1.2.9.8.6c.2.1.4.1.6,0l.8-.6,1.2-.9,2.5-1.9h0c1.1-.8,1.5-2.3,1-3.5h0Z"/>
  </g>
</svg>