<svg width="16" height="17" viewBox="0 0 16 17" fill="none" xmlns="http://www.w3.org/2000/svg">
<g id="HiOutlineStatusOnline">
<path id="Vector (Stroke)" fill-rule="evenodd" clip-rule="evenodd" d="M4.22871 3.32698C4.48906 3.58733 4.48906 4.00944 4.22871 4.26979C3.73345 4.76503 3.3406 5.35298 3.07257 6.00005C2.80454 6.64713 2.66659 7.34066 2.66659 8.04105C2.66659 8.74144 2.80454 9.43497 3.07257 10.082C3.3406 10.7291 3.73345 11.3171 4.22871 11.8123C4.48906 12.0727 4.48906 12.4948 4.22871 12.7551C3.96836 13.0155 3.54625 13.0155 3.2859 12.7551C2.66684 12.1361 2.17577 11.4011 1.84073 10.5923C1.50569 9.78345 1.33325 8.91653 1.33325 8.04105C1.33325 7.16556 1.50569 6.29865 1.84073 5.48981C2.17577 4.68096 2.66684 3.94603 3.2859 3.32697C3.54625 3.06663 3.96836 3.06663 4.22871 3.32698ZM11.7712 3.32698C12.0316 3.06663 12.4537 3.06663 12.714 3.32697C13.3331 3.94603 13.8242 4.68096 14.1592 5.48981C14.4942 6.29865 14.6667 7.16556 14.6667 8.04105C14.6667 8.91653 14.4942 9.78345 14.1592 10.5923C13.8242 11.4011 13.3331 12.1361 12.714 12.7551C12.4537 13.0155 12.0316 13.0155 11.7712 12.7551C11.5109 12.4948 11.5109 12.0727 11.7712 11.8123C12.2665 11.3171 12.6593 10.7291 12.9274 10.082C13.1954 9.43497 13.3334 8.74144 13.3334 8.04105C13.3334 7.34066 13.1954 6.64713 12.9274 6.00005C12.6593 5.35298 12.2665 4.76503 11.7712 4.26979C11.5109 4.00944 11.5109 3.58733 11.7712 3.32698ZM6.11397 5.2129C6.37436 5.47322 6.37442 5.89533 6.11411 6.15571C5.61419 6.65579 5.33335 7.33394 5.33335 8.04105C5.33335 8.74815 5.61419 9.42631 6.11411 9.92638C6.37442 10.1868 6.37436 10.6089 6.11397 10.8692C5.85358 11.1295 5.43147 11.1294 5.17116 10.869C4.42128 10.1189 4.00002 9.1017 4.00002 8.04105C4.00002 6.98039 4.42128 5.96316 5.17116 5.21305C5.43147 4.95266 5.85358 4.95259 6.11397 5.2129ZM9.88597 5.2129C10.1464 4.95259 10.5685 4.95266 10.8288 5.21305C11.5787 5.96316 11.9999 6.98039 11.9999 8.04105C11.9999 9.1017 11.5787 10.1189 10.8288 10.869C10.5685 11.1294 10.1464 11.1295 9.88597 10.8692C9.62558 10.6089 9.62552 10.1868 9.88583 9.92638C10.3858 9.42631 10.6666 8.74815 10.6666 8.04105C10.6666 7.33394 10.3858 6.65579 9.88583 6.15571C9.62552 5.89533 9.62558 5.47322 9.88597 5.2129ZM7.05716 7.09824C7.30721 6.84819 7.64635 6.70771 7.99997 6.70771C8.35359 6.70771 8.69273 6.84819 8.94278 7.09824C9.19283 7.34829 9.3333 7.68742 9.3333 8.04105C9.3333 8.39467 9.19283 8.73381 8.94278 8.98386C8.69273 9.2339 8.35359 9.37438 7.99997 9.37438C7.64635 9.37438 7.30721 9.2339 7.05716 8.98386C6.80711 8.73381 6.66664 8.39467 6.66664 8.04105C6.66664 7.68742 6.80711 7.34829 7.05716 7.09824Z" fill="#A3FFD1"/>
</g>
</svg>
