<svg xmlns="http://www.w3.org/2000/svg" width="16" height="17" viewBox="0 0 16 17" fill="none">
  <path fill-rule="evenodd" clip-rule="evenodd" d="M10 12.041C10 12.4092 9.70152 12.7077 9.33333 12.7077L2.66667 12.7077C2.29848 12.7077 2 12.4092 2 12.041C2 11.6728 2.29848 11.3743 2.66667 11.3743L9.33333 11.3743C9.70152 11.3743 10 11.6728 10 12.041Z" fill="#28B56F"/>
  <path fill-rule="evenodd" clip-rule="evenodd" d="M14 8.041C14 8.40919 13.7015 8.70766 13.3333 8.70766L2.66667 8.70766C2.29848 8.70766 2 8.40918 2 8.04099C2 7.6728 2.29848 7.37433 2.66667 7.37433L13.3333 7.37433C13.7015 7.37433 14 7.67281 14 8.041Z" fill="#28B56F"/>
  <path fill-rule="evenodd" clip-rule="evenodd" d="M7.33337 4.041C7.33337 4.40919 7.0349 4.70766 6.66671 4.70766L2.66671 4.70766C2.29852 4.70766 2.00004 4.40918 2.00004 4.041C2.00004 3.67281 2.29852 3.37433 2.66671 3.37433L6.66671 3.37433C7.0349 3.37433 7.33337 3.67281 7.33337 4.041Z" fill="#28B56F"/>
</svg>